<mxfile host="app.diagrams.net" agent="Mozilla/5.0 (Windows NT 10.0; Win64; x64) AppleWebKit/537.36 (KHTML, like Gecko) Chrome/133.0.0.0 Safari/537.36" version="26.0.14">
  <diagram name="PÃ¡gina-1" id="8PiniYnJoS8FLm3gc6Lz">
    <mxGraphModel dx="1112" dy="1187" grid="0" gridSize="10" guides="1" tooltips="1" connect="1" arrows="1" fold="1" page="0" pageScale="1" pageWidth="827" pageHeight="1169" math="0" shadow="0">
      <root>
        <mxCell id="0" />
        <mxCell id="1" parent="0" />
        <mxCell id="uJS8QlbWEQ4loa8j74Ku-1" value="Equipo" style="swimlane;fontStyle=1;align=center;verticalAlign=top;childLayout=stackLayout;horizontal=1;startSize=34;horizontalStack=0;resizeParent=1;resizeParentMax=0;resizeLast=0;collapsible=1;marginBottom=0;whiteSpace=wrap;html=1;autosize=1;" vertex="1" parent="1">
          <mxGeometry x="-151" y="-126" width="163" height="197" as="geometry" />
        </mxCell>
        <mxCell id="uJS8QlbWEQ4loa8j74Ku-2" value="- nombre: String&lt;div&gt;- mac: String&lt;/div&gt;&lt;div&gt;- sistemaop: String&lt;/div&gt;&lt;div&gt;- numIncidentes: int&lt;/div&gt;" style="text;strokeColor=none;fillColor=none;align=left;verticalAlign=top;spacingLeft=4;spacingRight=4;overflow=hidden;rotatable=0;points=[[0,0.5],[1,0.5]];portConstraint=eastwest;whiteSpace=wrap;html=1;autosize=1;" vertex="1" parent="uJS8QlbWEQ4loa8j74Ku-1">
          <mxGeometry y="34" width="163" height="70" as="geometry" />
        </mxCell>
        <mxCell id="uJS8QlbWEQ4loa8j74Ku-3" value="" style="line;strokeWidth=1;fillColor=none;align=left;verticalAlign=middle;spacingTop=-1;spacingLeft=3;spacingRight=3;rotatable=0;labelPosition=right;points=[];portConstraint=eastwest;strokeColor=inherit;autosize=1;" vertex="1" parent="uJS8QlbWEQ4loa8j74Ku-1">
          <mxGeometry y="104" width="163" height="8" as="geometry" />
        </mxCell>
        <mxCell id="uJS8QlbWEQ4loa8j74Ku-4" value="# metodo set&lt;div&gt;# metodo get&lt;/div&gt;&lt;div&gt;+ toString&lt;/div&gt;&lt;div&gt;+ HasCode&lt;/div&gt;&lt;div&gt;+ Equals&lt;/div&gt;&lt;div&gt;&lt;br&gt;&lt;/div&gt;" style="text;strokeColor=none;fillColor=none;align=left;verticalAlign=top;spacingLeft=4;spacingRight=4;overflow=hidden;rotatable=0;points=[[0,0.5],[1,0.5]];portConstraint=eastwest;whiteSpace=wrap;html=1;autosize=1;" vertex="1" parent="uJS8QlbWEQ4loa8j74Ku-1">
          <mxGeometry y="112" width="163" height="85" as="geometry" />
        </mxCell>
        <mxCell id="uJS8QlbWEQ4loa8j74Ku-5" value="Incidente" style="swimlane;fontStyle=1;align=center;verticalAlign=top;childLayout=stackLayout;horizontal=1;startSize=34;horizontalStack=0;resizeParent=1;resizeParentMax=0;resizeLast=0;collapsible=1;marginBottom=0;whiteSpace=wrap;html=1;autosize=1;" vertex="1" parent="1">
          <mxGeometry x="97" y="-126" width="163" height="249" as="geometry" />
        </mxCell>
        <mxCell id="uJS8QlbWEQ4loa8j74Ku-6" value="- id: int&lt;div&gt;- nombre:String&lt;/div&gt;&lt;div&gt;- descripcion: String&lt;/div&gt;&lt;div&gt;- fechaCierre: date&lt;/div&gt;&lt;div&gt;- estado: enum&lt;/div&gt;&lt;div&gt;- criticidad: enum&lt;/div&gt;&lt;div&gt;- equipo: Equipo&lt;/div&gt;" style="text;strokeColor=none;fillColor=none;align=left;verticalAlign=top;spacingLeft=4;spacingRight=4;overflow=hidden;rotatable=0;points=[[0,0.5],[1,0.5]];portConstraint=eastwest;whiteSpace=wrap;html=1;autosize=1;" vertex="1" parent="uJS8QlbWEQ4loa8j74Ku-5">
          <mxGeometry y="34" width="163" height="113" as="geometry" />
        </mxCell>
        <mxCell id="uJS8QlbWEQ4loa8j74Ku-7" value="" style="line;strokeWidth=1;fillColor=none;align=left;verticalAlign=middle;spacingTop=-1;spacingLeft=3;spacingRight=3;rotatable=0;labelPosition=right;points=[];portConstraint=eastwest;strokeColor=inherit;autosize=1;" vertex="1" parent="uJS8QlbWEQ4loa8j74Ku-5">
          <mxGeometry y="147" width="163" height="8" as="geometry" />
        </mxCell>
        <mxCell id="uJS8QlbWEQ4loa8j74Ku-8" value="# metodo set&lt;div&gt;# metodo get&lt;/div&gt;&lt;div&gt;+ toString&lt;/div&gt;&lt;div&gt;+ HasCode&lt;/div&gt;&lt;div&gt;+ Equals&lt;/div&gt;&lt;div&gt;# esUrgente()&lt;/div&gt;&lt;div&gt;&lt;br&gt;&lt;/div&gt;&lt;div&gt;&lt;br&gt;&lt;/div&gt;" style="text;strokeColor=none;fillColor=none;align=left;verticalAlign=top;spacingLeft=4;spacingRight=4;overflow=hidden;rotatable=0;points=[[0,0.5],[1,0.5]];portConstraint=eastwest;whiteSpace=wrap;html=1;autosize=1;" vertex="1" parent="uJS8QlbWEQ4loa8j74Ku-5">
          <mxGeometry y="155" width="163" height="94" as="geometry" />
        </mxCell>
        <mxCell id="uJS8QlbWEQ4loa8j74Ku-17" value="GestionaIncidenciasEquipo" style="swimlane;fontStyle=1;align=center;verticalAlign=top;childLayout=stackLayout;horizontal=1;startSize=26;horizontalStack=0;resizeParent=1;resizeParentMax=0;resizeLast=0;collapsible=1;marginBottom=0;whiteSpace=wrap;html=1;autosize=1;" vertex="1" parent="1">
          <mxGeometry x="-142" y="143" width="169" height="52" as="geometry" />
        </mxCell>
        <mxCell id="uJS8QlbWEQ4loa8j74Ku-20" value="+ main" style="text;strokeColor=none;fillColor=none;align=left;verticalAlign=top;spacingLeft=4;spacingRight=4;overflow=hidden;rotatable=0;points=[[0,0.5],[1,0.5]];portConstraint=eastwest;whiteSpace=wrap;html=1;autosize=1;" vertex="1" parent="uJS8QlbWEQ4loa8j74Ku-17">
          <mxGeometry y="26" width="169" height="26" as="geometry" />
        </mxCell>
        <mxCell id="uJS8QlbWEQ4loa8j74Ku-25" value="" style="line;strokeWidth=1;fillColor=none;align=left;verticalAlign=middle;spacingTop=-1;spacingLeft=3;spacingRight=3;rotatable=0;labelPosition=right;points=[];portConstraint=eastwest;strokeColor=inherit;" vertex="1" parent="1">
          <mxGeometry x="13" y="-71" width="85" height="8" as="geometry" />
        </mxCell>
      </root>
    </mxGraphModel>
  </diagram>
</mxfile>
